# xmcd
#
# Track frame offsets:
#	150
#	15339
#	32752
#	52388
#	67101
#	78411
#	98322
#	115368
#	128224
#	142557
#	160742
#	178278
#	194247
#	209601
#	223761
#	242674
#
# Disc length: 3394 seconds
#
# Revision: 9
# Processed by: cddbd v1.5.1PL2 Copyright (c) Steve Scherf et al.
# Submitted via: EasyCDDAExtractor 8.0.2.1
#
DISCID=ea0d4010
DTITLE=The BossHoss - Internashville Urban Hymns
DYEAR=2005
DGENRE=
TTITLE0=Boss Hoss - Yee Haw
TTITLE1=Hey Ya!
TTITLE2=Toxic
TTITLE3=Loser
TTITLE4=Sabotage
TTITLE5=Hot In Herre
TTITLE6=Seven Nation Army
TTITLE7=Drowned In Lake Daniels
TTITLE8=A Little Less Conversation
TTITLE9=Hey Joe
TTITLE10=Eyes Without A Face
TTITLE11=Unbelievable
TTITLE12=All The Things She Said
TTITLE13=Remedy
TTITLE14=Word Up
TTITLE15=Like Ice In The Sunshine
EXTD=YEAR: 2005
EXTT0=
EXTT1=
EXTT2=
EXTT3=
EXTT4=
EXTT5=
EXTT6=
EXTT7=
EXTT8=
EXTT9=
EXTT10=
EXTT11=
EXTT12=
EXTT13=
EXTT14=
EXTT15=
PLAYORDER=
